<?xml version="1.0" encoding="utf-8"?>
<!-- Generator: Adobe Illustrator 19.1.0, SVG Export Plug-In . SVG Version: 6.00 Build 0)  -->
<svg version="1.1" id="Capa_1" xmlns="http://www.w3.org/2000/svg" xmlns:xlink="http://www.w3.org/1999/xlink" x="0px" y="0px"
	 viewBox="-374 127.2 565.8 594" style="enable-background:new -374 127.2 565.8 594;" xml:space="preserve">
<g>
	<path d="M141.4,420.3H97.5c-11.1,0-20,8.9-20.4,19.8C68,524.7-3.6,590.5-90.7,590.5c-93.3,0-168.8-75.4-168.8-168.5
		c0-92.3,76-167.2,168.1-168.5v27.4c0,12.5,8.9,18.1,19.7,12.5l140.7-72c10.9-5.6,10.9-14.6,0-20.2l-140.7-71.8
		c-10.9-5.6-19.7,0-19.7,12.4v27.6c-138.7,1.3-252.4,114.1-252.4,252.8c0,139.6,113.3,252.8,253.1,252.8
		C43,675,152.5,571.5,161.7,440.2C161.8,429.2,152.5,420.3,141.4,420.3z"/>
</g>
</svg>
